<svg xmlns="http://www.w3.org/2000/svg" viewBox="0 0 24 24" id="tripadvisor"><path fill="#303c42" d="M22.954 9.621c.247-.96.923-1.793.93-1.802A.5.5 0 0 0 23.5 7h-3.757A16.081 16.081 0 0 0 12 5c-2.692 0-5.385.695-7.743 2H.5a.5.5 0 0 0-.384.82c.007.009.683.835.93 1.801A5.963 5.963 0 0 0 0 13c0 3.309 2.691 6 6 6a5.979 5.979 0 0 0 4.485-2.028l1.088 1.788a.5.5 0 0 0 .854 0l1.088-1.788A5.979 5.979 0 0 0 18 19c3.309 0 6-2.691 6-6a5.965 5.965 0 0 0-1.046-3.379z"></path><circle cx="6" cy="13" r="5" fill="#fff"></circle><circle cx="18" cy="13" r="5" fill="#fff"></circle><circle cx="6" cy="13" r="3" fill="#303c42"></circle><circle cx="6" cy="13" r="2" fill="#fff"></circle><circle cx="18" cy="13" r="3" fill="#303c42"></circle><circle cx="18" cy="13" r="2" fill="#fff"></circle><circle cx="6" cy="13" r="1" fill="#e53935"></circle><circle cx="18" cy="13" r="1" fill="#7cb342"></circle><path fill="#303c42" d="M22.201 8.723A6.082 6.082 0 0 0 21.31 8h1.249a6.09 6.09 0 0 0-.358.723zM2.69 8c-.32.213-.618.455-.891.723A6.248 6.248 0 0 0 1.442 8H2.69z"></path><path fill="#ffe082" d="m12 17.538.874-1.436A5.95 5.95 0 0 1 12 13a5.95 5.95 0 0 1-.874 3.102L12 17.538zm5.431-10.509a15.425 15.425 0 0 0-10.862 0C9.611 7.317 12 9.883 12 13a6.006 6.006 0 0 1 5.431-5.971z"></path><linearGradient id="a" x1=".377" x2="22.748" y1="6.582" y2="17.014" gradientUnits="userSpaceOnUse"><stop offset="0" stop-color="#fff" stop-opacity=".2"></stop><stop offset="1" stop-color="#fff" stop-opacity="0"></stop></linearGradient><path fill="url(#a)" d="M22.954 9.621c.247-.96.923-1.793.93-1.802A.5.5 0 0 0 23.5 7h-3.757A16.081 16.081 0 0 0 12 5c-2.692 0-5.385.695-7.743 2H.5a.5.5 0 0 0-.384.82c.007.009.683.835.93 1.801A5.963 5.963 0 0 0 0 13c0 3.309 2.691 6 6 6a5.979 5.979 0 0 0 4.485-2.028l1.088 1.788a.5.5 0 0 0 .854 0l1.088-1.788A5.979 5.979 0 0 0 18 19c3.309 0 6-2.691 6-6a5.965 5.965 0 0 0-1.046-3.379z"></path></svg>